<svg width="32" height="32" viewBox="0 0 32 32" fill="none" xmlns="http://www.w3.org/2000/svg">
<circle cx="16" cy="16" r="16" fill="#007DFF"/>
<path d="M13.9962 16.8721C14.4823 16.8166 14.9684 16.7692 15.4546 16.7191C15.6976 16.6949 15.9407 16.6681 16.1837 16.6466L16.9129 16.5795L18.3712 16.4463L19.8295 16.3228L19.313 16.9132L19.2944 16.822L19.2716 16.7182C19.2556 16.6484 19.2379 16.5778 19.2185 16.5071C19.1805 16.3666 19.1366 16.2271 19.0885 16.0902C18.9906 15.8174 18.8742 15.5553 18.74 15.3128C18.6024 15.0713 18.4522 14.8503 18.3045 14.6357C18.156 14.4219 17.9897 14.2259 17.7939 14.0712C17.5998 13.9146 17.388 13.7876 17.1601 13.6928C16.9306 13.5997 16.6858 13.538 16.4327 13.5022L16.2403 13.4808C16.1753 13.4763 16.1094 13.4754 16.0445 13.4727L15.9466 13.4691C15.9204 13.4691 15.9761 13.4682 15.9677 13.4682H15.9609L15.9466 13.4691L15.9179 13.47L15.8605 13.4727L15.6318 13.4826C15.5752 13.4915 15.5187 13.4996 15.463 13.5067C15.4343 13.5112 15.4081 13.5121 15.3769 13.5192L15.2849 13.5398C15.2242 13.555 15.1609 13.5631 15.1018 13.5836L14.9229 13.64C14.6883 13.7277 14.4638 13.8404 14.2553 13.9826C14.0503 14.1302 13.8604 14.3029 13.6907 14.4979C13.5203 14.6929 13.3785 14.9165 13.2553 15.1518C13.2266 15.2118 13.1928 15.269 13.1683 15.3316L13.0907 15.5168C13.0477 15.6438 12.9996 15.77 12.9692 15.9015C12.8274 16.423 12.8046 16.9794 12.889 17.5099C12.9354 17.7747 13.008 18.0323 13.1051 18.2792C13.208 18.5234 13.3363 18.7533 13.4857 18.9698C13.6426 19.1801 13.8165 19.3769 14.0131 19.5513L14.0308 19.5683L14.0401 19.5764C14.0081 19.5495 14.0342 19.5719 14.0292 19.5665L14.0351 19.571L14.0806 19.6077L14.1718 19.681C14.2013 19.7043 14.2342 19.7329 14.2612 19.7517L14.3363 19.8036C14.4292 19.8733 14.549 19.9449 14.6621 20.0129C15.1271 20.2741 15.6419 20.4548 16.1786 20.5389C16.7137 20.6293 17.2673 20.6248 17.8074 20.5452L17.8201 20.5434L17.8268 20.5425C17.8226 20.5434 17.8446 20.5398 17.8192 20.5443L17.8471 20.5389L17.9036 20.5291L18.0167 20.5085C18.0969 20.4951 18.1568 20.4799 18.221 20.4656C18.3459 20.4396 18.486 20.3994 18.6193 20.3627C18.8877 20.2849 19.1527 20.1856 19.4143 20.0737C19.9375 19.851 20.4422 19.5638 20.9266 19.2346C21.1688 19.0691 21.4059 18.8947 21.638 18.7104C21.8777 18.5181 22.0954 18.332 22.3216 18.1289C23.217 17.3211 24.0449 16.398 24.8863 15.4578L24.8196 16.355C24.3378 15.6116 23.7656 14.9318 23.1242 14.3333C22.4828 13.7339 21.7731 13.2151 21.0177 12.7884L20.9823 12.7678C20.9688 12.7606 20.9958 12.775 20.9907 12.7723L20.9857 12.7696L20.9764 12.7642L20.957 12.7544L20.881 12.7141L20.7283 12.6336C20.627 12.5799 20.5232 12.5236 20.4312 12.4824L20.1476 12.3482L19.8506 12.2221C19.4514 12.0593 19.0455 11.9126 18.6303 11.8008C17.8032 11.5735 16.9466 11.4394 16.1027 11.4304L16.0183 11.4313L15.9508 11.4331L15.7803 11.4376L15.4394 11.4465C15.2554 11.4555 15.0368 11.4778 14.8284 11.5047C14.4081 11.5628 13.9861 11.6487 13.5709 11.7605C13.1557 11.8723 12.7464 12.0092 12.3438 12.1675C11.943 12.3295 11.5514 12.5155 11.1691 12.7195L10.8864 12.8814L10.7454 12.9628L10.6087 13.0478C10.4036 13.1739 10.2408 13.2866 10.0627 13.4101C9.70654 13.6624 9.36391 13.9361 9.03815 14.2304C8.71239 14.5256 8.39761 14.836 8.11827 15.1813C7.83892 15.5249 7.52245 15.8353 7.23973 16.1824L7.28024 15.4622C7.4043 15.7395 7.53849 16.0133 7.6828 16.2817C7.75538 16.4158 7.83049 16.5482 7.90813 16.6797C7.98661 16.8112 8.06679 16.941 8.14949 17.0698C8.23304 17.1977 8.31828 17.3247 8.40605 17.45C8.49466 17.5743 8.58411 17.6987 8.67779 17.8194C8.76894 17.9429 8.86514 18.0627 8.96135 18.1817C9.0584 18.3007 9.15799 18.417 9.25926 18.5333C9.35716 18.6424 9.47193 18.7686 9.5732 18.8732C9.677 18.9833 9.78756 19.0915 9.89811 19.1988C10.0087 19.3062 10.1226 19.41 10.2374 19.5128C10.3538 19.6139 10.4703 19.715 10.5893 19.8134C10.8273 20.0102 11.0737 20.1981 11.3277 20.3761C11.5826 20.5523 11.8434 20.7214 12.1109 20.8806C11.5252 20.6838 10.9539 20.4271 10.4011 20.1247L10.1943 20.0084L9.99095 19.8859C9.85676 19.8018 9.72258 19.7168 9.59008 19.6273C9.45758 19.537 9.32762 19.4475 9.19681 19.35C9.06094 19.2507 8.94701 19.1622 8.81535 19.0575C8.68961 18.9564 8.56555 18.8535 8.44318 18.7462C8.32081 18.6397 8.19928 18.5315 8.08198 18.4188C7.96383 18.3061 7.84905 18.1898 7.73512 18.0726C7.62119 17.9545 7.51064 17.8337 7.40092 17.7103C7.29206 17.5868 7.18488 17.4607 7.07939 17.3328C6.97474 17.204 6.87262 17.0742 6.7722 16.941C6.57218 16.6753 6.38146 16.3997 6.20086 16.1162L6 15.7968L6.24558 15.3969C6.50551 14.9729 6.7722 14.5426 7.11483 14.1839C7.45578 13.8261 7.79842 13.47 8.16468 13.1408C8.5301 12.8107 8.91409 12.5039 9.31327 12.2212C9.51413 12.0799 9.73355 11.9323 9.92174 11.8169L10.0787 11.7185L10.2365 11.6272L10.5538 11.4465C10.9826 11.2175 11.4206 11.0091 11.8687 10.8284C12.3185 10.6512 12.7759 10.4983 13.2409 10.373C13.7059 10.2478 14.1785 10.1512 14.6587 10.085C14.9009 10.0537 15.1355 10.0277 15.4048 10.0152L15.7457 10.0063L15.9162 10.0018L16.0183 10L16.1094 10.0009C17.0833 10.0107 18.037 10.1628 18.9678 10.4178C19.4337 10.5439 19.8894 10.7067 20.3375 10.8901L20.6726 11.0332L21.011 11.1942C21.1283 11.2479 21.2262 11.3016 21.3283 11.3562L21.4811 11.4367L21.557 11.4769L21.6085 11.5047L21.6482 11.5279C22.4955 12.0065 23.2913 12.588 24.0128 13.2625C24.7344 13.937 25.3817 14.7036 25.9286 15.5481L26.2375 16.0258L25.8619 16.4463C25.0205 17.3864 24.1605 18.3481 23.1926 19.2221C22.952 19.4386 22.6938 19.6587 22.4457 19.8572C22.1883 20.0621 21.9233 20.2571 21.6515 20.4432C21.3798 20.6293 21.0979 20.8019 20.8093 20.9638C20.5207 21.1248 20.2236 21.2742 19.9173 21.404C19.6109 21.5346 19.2987 21.6509 18.9771 21.7448C18.8142 21.7904 18.659 21.8351 18.4843 21.8718C18.399 21.8906 18.3096 21.9112 18.2387 21.9228L18.1256 21.9434L18.069 21.9532L18.0412 21.9586L17.9965 21.9648C17.3264 22.0641 16.6437 22.0686 15.9693 21.9568C15.2959 21.8503 14.6317 21.6231 14.0165 21.2751C13.8637 21.183 13.7169 21.0962 13.5591 20.9799L13.4435 20.8967C13.4072 20.8699 13.381 20.8466 13.3489 20.8216L13.2578 20.7482L13.2122 20.7116L13.1835 20.6883L13.1709 20.6767L13.1456 20.6534C12.8721 20.4128 12.6257 20.1355 12.4046 19.8358C12.1911 19.5298 12.0079 19.1997 11.8619 18.8509C11.7218 18.4993 11.6189 18.1334 11.5547 17.7604C11.4349 17.0134 11.4695 16.2423 11.6653 15.5177C11.71 15.3352 11.7733 15.159 11.8358 14.9819L11.9438 14.7224C11.9792 14.6357 12.0257 14.5542 12.0662 14.4702C12.2392 14.1392 12.4417 13.8216 12.6873 13.5398C12.9312 13.258 13.208 13.0049 13.5101 12.7902C13.8156 12.5799 14.1465 12.4127 14.4891 12.2865L14.749 12.2042C14.836 12.1756 14.9246 12.1613 15.0132 12.1407L15.1457 12.1121C15.1896 12.1022 15.2402 12.0978 15.2866 12.0915L15.5727 12.0566L15.8023 12.0468L15.8596 12.0441L15.8883 12.0432L15.9027 12.0423H15.9094C15.9061 12.0423 15.9668 12.0414 15.9449 12.0414L16.0757 12.0459C16.1635 12.0495 16.2504 12.0504 16.3373 12.0575L16.6015 12.087C16.9534 12.1371 17.3078 12.2248 17.6496 12.3652C17.9906 12.5075 18.3163 12.7016 18.6092 12.9378C18.9003 13.1748 19.1687 13.4432 19.3949 13.7402C19.6227 14.0372 19.7915 14.3735 19.9198 14.7162C20.0489 15.0588 20.146 15.4068 20.2169 15.7565C20.2515 15.9319 20.2801 16.1072 20.3021 16.2843C20.3131 16.3729 20.3223 16.4615 20.3291 16.5518L20.3384 16.6887L20.3443 16.839L20.3704 17.475L19.8278 17.4294L18.3695 17.3059L16.9112 17.1726L16.182 17.1056C15.939 17.0841 15.6959 17.0572 15.4529 17.0331C14.9684 16.9749 14.4823 16.9275 13.9962 16.8721Z" fill="white"/>
</svg>
