<svg width="69" height="65" viewBox="0 0 69 65" fill="none" xmlns="http://www.w3.org/2000/svg">
<path d="M0.439499 46.3059C12.53 57.1269 30.6805 58.0656 43.6306 49.805C42.6817 52.0515 41.2006 54.2267 39.2863 56.0782L48.765 64.8438C59.7413 54.026 61.2059 37.7799 53.0629 25.8195C55.364 26.7259 57.5063 28.0757 59.3512 29.8592L68.4893 21.0872C68.1719 20.7764 67.8479 20.4689 67.5173 20.1711C56.703 10.3633 40.1492 8.92608 27.5034 16.4454C27.8274 15.7139 28.1943 14.9985 28.6175 14.3058C29.4936 12.8719 30.588 11.5286 31.9071 10.3244L22.0516 0.862938C22.045 0.869411 22.0383 0.875885 22.0317 0.882359C10.1892 11.4994 8.67503 28.5029 17.5652 40.9748C15.0823 40.0684 12.7416 38.6248 10.7116 36.7732L0.439499 46.3059ZM30.8921 28.7975L31.9137 29.7589C35.0082 26.8651 38.8565 25.156 42.8272 24.6089C43.5611 24.5053 44.2984 24.4471 45.0324 24.4244L39.3359 29.7815C42.9495 33.2062 44.8406 37.6213 45.0324 42.0915L39.283 36.783C35.6397 40.2335 30.9318 42.0332 26.0652 42.2598L27.2951 41.0978H27.2984L31.9137 36.7571C28.2307 33.3162 26.2702 28.8299 26.0586 24.282V24.2496L30.8921 28.7975Z" fill="#FF421B"/>
</svg>
